Coordinates
version=1
nRows=14
nColumns=40
inDegrees=yes

Units are S.I. units (second, meters, Newtons, ...)
Angles are in degrees.

endheader
time	pelvis_tilt	pelvis_list	pelvis_rotation	pelvis_tx	pelvis_ty	pelvis_tz	hip_flexion_r	hip_adduction_r	hip_rotation_r	knee_angle_r	knee_angle_r_beta	ankle_angle_r	subtalar_angle_r	mtp_angle_r	hip_flexion_l	hip_adduction_l	hip_rotation_l	knee_angle_l	knee_angle_l_beta	ankle_angle_l	subtalar_angle_l	mtp_angle_l	lumbar_extension	lumbar_bending	lumbar_rotation	arm_flex_r	arm_add_r	arm_rot_r	elbow_flex_r	pro_sup_r	wrist_flex_r	wrist_dev_r	arm_flex_l	arm_add_l	arm_rot_l	elbow_flex_l	pro_sup_l	wrist_flex_l	wrist_dev_l
     21.39750000	     -2.65393977	     -5.61336552	      3.58157679	      1.08856156	      0.93245954	      0.49324577	      6.66291407	      4.43998178	    -14.17353027	     13.61198248	     13.61198248	     11.56213064	      1.38583318	     -4.07286959	     36.09596113	    -14.91794837	     -0.12782626	     52.85453355	     52.85453355	      7.98119776	    -19.08859340	     16.63868933	    -10.68300549	      5.48016623	      2.30315827	     27.89037760	    -20.36943347	     -4.27100921	     97.61239822	     44.25451248	      0.00000000	      0.00000000	     -0.47376722	     -9.08161454	     -6.66217413	     23.99844629	     46.46758463	      0.00000000	      0.00000000
     21.41100000	     -2.90662133	     -5.52256588	      3.88843702	      1.08709784	      0.93210915	      0.49254879	      6.47110196	      4.31349968	    -14.51902900	     13.29208959	     13.29208959	     11.70982567	      1.65357110	     -4.17547960	     36.25782524	    -14.25188274	      0.01063574	     49.13597188	     49.13597188	      8.35152036	    -18.91193978	     16.44140977	    -10.65236000	      5.48858819	      2.50246444	     29.27205603	    -20.25541452	     -4.56821448	     99.57209644	     44.22575262	      0.00000000	      0.00000000	     -1.36326841	     -8.90039378	     -6.34199784	     24.13308274	     46.38021780	      0.00000000	      0.00000000
     21.42450000	     -3.16491221	     -5.48531654	      4.17778049	      1.08564604	      0.93158506	      0.49180790	      6.32328613	      4.22691004	    -14.92498443	     13.04331903	     13.04331903	     11.87808492	      2.00579729	     -4.38773279	     36.30101009	    -13.59051316	      0.32999595	     45.29654622	     45.29654622	      8.27043732	    -18.63711936	     15.47100522	    -10.65235381	      5.50401482	      2.73359535	     30.48645552	    -20.18608724	     -4.86976663	    101.58116665	     44.20765089	      0.00000000	      0.00000000	     -2.28011317	     -8.73516497	     -5.78544427	     24.57891016	     46.24403889	      0.00000000	      0.00000000
     21.43800000	     -3.44604860	     -5.38520015	      4.43509998	      1.08423869	      0.93097431	      0.49088179	      6.23481221	      4.08616857	    -15.05414688	     12.87085167	     12.87085167	     12.08947449	      1.93618299	     -4.49298163	     36.27679574	    -12.82443672	      0.79600824	     41.54641692	     41.54641692	      8.49260136	    -18.02105793	     15.49785013	    -10.52761249	      5.41080957	      3.05304053	     31.78904554	    -20.25815079	     -5.05154472	    102.41414291	     44.19939279	      0.00000000	      0.00000000	     -2.87442602	     -8.47804925	     -5.64044620	     24.50531328	     46.20364711	      0.00000000	      0.00000000
     21.45150000	     -3.65689659	     -5.32624263	      4.70372106	      1.08297921	      0.93035444	      0.48987124	      6.05280641	      3.98780002	    -15.26073804	     12.68879572	     12.68879572	     12.32313903	      1.97068064	     -4.65042529	     36.10939707	    -12.13302909	      1.34239549	     37.91884163	     37.91884163	      8.66328337	    -17.03879691	     15.29166918	    -10.49901903	      5.35767844	      3.20147369	     32.97465836	    -20.06413978	     -5.12329733	    103.54274969	     44.17869892	      0.00000000	      0.00000000	     -3.53204360	     -8.27395575	     -5.48933875	     24.45923199	     46.16047425	      0.00000000	      0.00000000
     21.46500000	     -3.79748217	     -5.31533634	      5.00052230	      1.08183619	      0.92976318	      0.48868635	      5.77659052	      3.93025626	    -15.51953505	     12.48887912	     12.48887912	     12.54707312	      2.10777486	     -4.86973440	     35.86260646	    -11.55294856	      1.84637283	     34.53604201	     34.53604201	      8.67496365	    -15.69284915	     14.78474436	    -10.54498064	      5.40631021	      3.25588262	     33.97863278	    -19.77613162	     -5.11776871	    104.80258893	     44.15366890	      0.00000000	      0.00000000	     -4.20229902	     -8.09466948	     -5.30499402	     24.52834534	     46.10977739	      0.00000000	      0.00000000
     21.47850000	     -3.92170369	     -5.33441284	      5.28957264	      1.08090957	      0.92909879	      0.48744241	      5.43831013	      3.91943424	    -15.79342025	     12.22742448	     12.22742448	     12.77827820	      2.26203005	     -5.13811723	     35.60363704	    -11.07936451	      2.24671931	     31.52803684	     31.52803684	      8.68846092	    -14.05728533	     14.01746777	    -10.57447185	      5.41676952	      3.32892303	     34.82259229	    -19.52733008	     -5.07202186	    105.98228502	     44.13269595	      0.00000000	      0.00000000	     -4.82681065	     -7.92080186	     -5.08353043	     24.70921803	     46.05276164	      0.00000000	      0.00000000
     21.49200000	     -4.18306945	     -5.54700189	      5.63113347	      1.07990106	      0.92808143	      0.48602552	      5.35138744	      4.08510971	    -16.04527723	     12.11272618	     12.11272618	     13.01316999	      2.18499835	     -5.29052262	     35.71224564	    -10.73232971	      2.83247271	     29.17005617	     29.17005617	      8.83582434	    -12.59840842	     13.97997707	    -10.37195057	      5.64662111	      3.51791677	     35.53733546	    -19.57529224	     -5.13806620	    106.44397006	     44.12734076	      0.00000000	      0.00000000	     -5.20197550	     -7.66931610	     -5.00969217	     24.69546334	     46.03101208	      0.00000000	      0.00000000
     21.50550000	     -4.18025556	     -5.45888882	      5.89899069	      1.07951477	      0.92760507	      0.48447976	      4.67402350	      4.01550304	    -16.22454330	     11.52187760	     11.52187760	     12.95428553	      2.30582034	     -6.21610692	     35.18377073	    -10.31339735	      2.64217426	     26.78786874	     26.78786874	      7.94071909	    -11.05940846	     10.87670371	    -10.53318355	      5.53463360	      3.52525255	     35.98993172	    -19.25830459	     -4.99746310	    107.86340031	     44.18068339	      0.00000000	      0.00000000	     -6.01748873	     -7.74539212	     -3.62632182	     25.67383285	     45.76934212	      0.00000000	      0.00000000
     21.51900000	     -4.37356083	     -5.61346677	      6.20416821	      1.07898645	      0.92671309	      0.48285740	      4.46294937	      4.12714098	    -16.39694391	     11.38801557	     11.38801557	     13.24726254	      2.19302054	     -6.29741844	     35.20211214	     -9.99951398	      2.82228198	     25.35079288	     25.35079288	      8.07361935	     -9.99527665	     10.96429114	    -10.34061760	      5.64355911	      3.61433439	     36.33925889	    -19.18501008	     -4.98027512	    108.14185500	     44.17756589	      0.00000000	      0.00000000	     -6.28230943	     -7.59126662	     -3.56313703	     25.61510939	     45.75395025	      0.00000000	      0.00000000
     21.53250000	     -4.37331911	     -5.55129011	      6.46298708	      1.07889545	      0.92625022	      0.48102070	      3.81398976	      4.06329209	    -16.47151525	     10.91379903	     10.91379903	     13.47074998	      2.33965509	     -6.34846558	     34.90609128	     -9.61437640	      2.42140653	     24.34840072	     24.34840072	      8.26709677	     -8.83839063	     10.92370868	    -10.39866047	      5.54819444	      3.53138186	     36.45358061	    -18.76215047	     -4.74858191	    108.82307684	     44.16200507	      0.00000000	      0.00000000	     -6.51736429	     -7.51847635	     -3.41577057	     25.47208516	     45.72887045	      0.00000000	      0.00000000
     21.54600000	     -4.50390558	     -5.68807527	      6.69207238	      1.07885859	      0.92520681	      0.47916586	      3.52378390	      4.15030041	    -16.59407081	     10.83747499	     10.83747499	     13.87114665	      2.23049907	     -6.45906393	     34.98768994	     -9.33681013	      2.30795036	     24.12191140	     24.12191140	      8.32564763	     -8.71264011	     10.91912655	    -10.22935686	      5.59072670	      3.67066475	     36.47537524	    -18.68673135	     -4.70364962	    108.88522979	     44.15968725	      0.00000000	      0.00000000	     -6.62132905	     -7.43772426	     -3.40201977	     25.44512138	     45.72481832	      0.00000000	      0.00000000
     21.55950000	     -4.56478347	     -5.71855467	      6.92929150	      1.07923444	      0.92458927	      0.47717773	      2.90472747	      4.18442196	    -16.71920246	     10.32175392	     10.32175392	     14.02750558	      2.37947886	     -6.45169072	     34.60557190	     -9.09094277	      1.65008977	     23.66512611	     23.66512611	      8.28056155	     -7.99827649	     10.58331386	    -10.14239174	      5.52932155	      3.54522426	     36.10866131	    -18.34373582	     -4.42739613	    109.52493915	     44.14566803	      0.00000000	      0.00000000	     -6.75647358	     -7.35551338	     -3.25927069	     25.40731210	     45.70320101	      0.00000000	      0.00000000
     21.57300000	     -4.66997135	     -5.78719046	      7.09489708	      1.07977112	      0.92357613	      0.47509657	      2.52527819	      4.19325899	    -16.75182325	     10.21206663	     10.21206663	     14.38704988	      2.32784827	     -6.51942806	     34.40499302	     -8.84024264	      1.26035610	     23.81515707	     23.81515707	      8.17535136	     -8.11495238	     10.44424463	     -9.95163297	      5.47684435	      3.59173292	     35.63537631	    -18.14159507	     -4.26400983	    109.57207410	     44.14183901	      0.00000000	      0.00000000	     -6.78087753	     -7.30871676	     -3.22177634	     25.42636852	     45.69772540	      0.00000000	      0.00000000
